<svg xmlns="http://www.w3.org/2000/svg" width="56.418" height="63.755" viewBox="0 0 56.418 63.755">
  <g id="graphic-design" transform="translate(85.745) rotate(90)">
    <path id="Tracé_49" data-name="Tracé 49" d="M230.7,438.64a.938.938,0,0,1-.938-.938v-2.495a.649.649,0,0,0-.648-.648h-2.519a.649.649,0,0,0-.648.648V437.7a.938.938,0,0,1-1.876,0v-2.495a2.527,2.527,0,0,1,2.525-2.525h2.519a2.527,2.527,0,0,1,2.525,2.525V437.7A.938.938,0,0,1,230.7,438.64Z" transform="translate(-196.037 -352.895)" fill="#37373e"/>
    <g id="Groupe_23" data-name="Groupe 23" transform="translate(0 29.327)">
      <path id="Tracé_50" data-name="Tracé 50" d="M162.554,135.993a.938.938,0,0,0-1.508,1.117l4.659,6.293a1.975,1.975,0,0,1-.085,2.4l-5.02,5.728H146.467l-5.02-5.728a1.975,1.975,0,0,1-.085-2.4l9.25-12.493v7.119a4.781,4.781,0,1,0,5.969.1v-7.051l2.06,2.783a.938.938,0,1,0,1.508-1.117l-4.024-5.436a3.166,3.166,0,0,0-5.182,0l-11.089,14.977a3.86,3.86,0,0,0,.182,4.754l4.186,4.777a3.064,3.064,0,0,0-1.772,2.775v4.476a3.066,3.066,0,0,0,2.149,2.922l.256,7.4a.938.938,0,0,0,.937.906h.033a.938.938,0,0,0,.905-.97l-.249-7.192H160.71l-.249,7.192a.938.938,0,0,0,.905.97h.033a.938.938,0,0,0,.937-.906l.257-7.438a3.065,3.065,0,0,0,2.023-2.879v-4.476a3.064,3.064,0,0,0-1.772-2.775l4.186-4.777a3.86,3.86,0,0,0,.182-4.754Zm-9.021-8.155a1.342,1.342,0,0,1,1.083.586l.088.119V138.6a.938.938,0,0,0,.422.784,2.9,2.9,0,1,1-3.091-.06.938.938,0,0,0,.453-.8V128.379A1.329,1.329,0,0,1,153.533,127.838Zm9.207,31.229a1.185,1.185,0,0,1-1.184,1.184H145.51a1.185,1.185,0,0,1-1.184-1.184v-4.476a1.185,1.185,0,0,1,1.184-1.184h16.046a1.185,1.185,0,0,1,1.184,1.184Z" transform="translate(-121.719 -113.873)" fill="#37373e"/>
      <path id="Tracé_51" data-name="Tracé 51" d="M72.2,139.465A18.743,18.743,0,0,1,74.618,131a.938.938,0,0,0-1.632-.926,20.622,20.622,0,0,0-2.659,9.379,3.742,3.742,0,1,0,1.878.009Zm-.956,5.483a1.866,1.866,0,1,1,1.866-1.866A1.868,1.868,0,0,1,71.248,144.948Z" transform="translate(-59.061 -117.057)" fill="#37373e"/>
      <path id="Tracé_52" data-name="Tracé 52" d="M61.768,29.327H58.753a1.989,1.989,0,0,0-1.987,1.987v.569H35.372v-.569a1.989,1.989,0,0,0-1.987-1.987H30.37a1.989,1.989,0,0,0-1.987,1.987v.569H6.988v-.569A1.989,1.989,0,0,0,5,29.327H1.987A1.989,1.989,0,0,0,0,31.314v3.015a1.989,1.989,0,0,0,1.987,1.987H5a1.989,1.989,0,0,0,1.987-1.987v-.569H23.276a20.668,20.668,0,0,0-6.887,5.128.938.938,0,0,0,1.408,1.24,18.734,18.734,0,0,1,10.586-6.041v.243a1.989,1.989,0,0,0,1.987,1.987h3.015a1.989,1.989,0,0,0,1.987-1.987v-.243A18.793,18.793,0,0,1,50.613,51.735a3.742,3.742,0,1,0,1.877-.009A20.7,20.7,0,0,0,40.479,33.76H56.767v.569a1.989,1.989,0,0,0,1.987,1.987h3.015a1.989,1.989,0,0,0,1.987-1.987V31.314a1.989,1.989,0,0,0-1.987-1.987Zm-56.656,5a.11.11,0,0,1-.11.11H1.987a.11.11,0,0,1-.11-.11V31.314a.11.11,0,0,1,.11-.11H5a.11.11,0,0,1,.11.11ZM53.433,55.353a1.866,1.866,0,1,1-1.866-1.866A1.868,1.868,0,0,1,53.433,55.353ZM33.5,34.329a.11.11,0,0,1-.11.11H30.37a.11.11,0,0,1-.11-.11V31.314a.11.11,0,0,1,.11-.11h3.015a.11.11,0,0,1,.11.11Zm28.383,0a.11.11,0,0,1-.11.11H58.753a.11.11,0,0,1-.11-.11V31.314a.11.11,0,0,1,.11-.11h3.015a.11.11,0,0,1,.11.11Z" transform="translate(0 -29.327)" fill="#37373e"/>
    </g>
  </g>
</svg>
