<svg xmlns="http://www.w3.org/2000/svg" width="60.002" height="60" viewBox="0 0 60.002 60">
  <g id="continuous" transform="translate(-2 -2)">
    <path id="Tracé_42" data-name="Tracé 42" d="M9,10.586,7.707,9.293,6.293,10.707l2,2a1,1,0,0,0,1.414,0l5-5L13.293,6.293Z" fill="#37373e"/>
    <path id="Tracé_43" data-name="Tracé 43" d="M29,10.586,27.707,9.293l-1.414,1.414,2,2a1,1,0,0,0,1.414,0l5-5L33.293,6.293Z" fill="#37373e"/>
    <path id="Tracé_44" data-name="Tracé 44" d="M49,10.586,47.707,9.293l-1.414,1.414,2,2a1,1,0,0,0,1.414,0l5-5L53.293,6.293Z" fill="#37373e"/>
    <path id="Tracé_45" data-name="Tracé 45" d="M13,57a1,1,0,0,0,.707-.293l5-5-1.414-1.414L13,54.586l-1.293-1.293-1.414,1.414,2,2A1,1,0,0,0,13,57Z" fill="#37373e"/>
    <path id="Tracé_46" data-name="Tracé 46" d="M33,57a1,1,0,0,0,.707-.293l5-5-1.414-1.414L33,54.586l-1.293-1.293-1.414,1.414,2,2A1,1,0,0,0,33,57Z" fill="#37373e"/>
    <path id="Tracé_47" data-name="Tracé 47" d="M53,57a1,1,0,0,0,.707-.293l5-5-1.414-1.414L53,54.586l-1.293-1.293-1.414,1.414,2,2A1,1,0,0,0,53,57Z" fill="#37373e"/>
    <path id="Tracé_48" data-name="Tracé 48" d="M62,28V14a5,5,0,0,0-4.055-4.9A7.994,7.994,0,0,0,42.069,9H37.93A7.992,7.992,0,0,0,22.069,9H17.93a8,8,0,1,0,0,2H22.07a7.993,7.993,0,0,0,15.862,0h4.139a7.991,7.991,0,0,0,15.838.155A3,3,0,0,1,60,14V28a3,3,0,0,1-3,3H40.414l2.293-2.293-1.414-1.414L37.586,31H32.414l2.293-2.293-1.414-1.414L29.586,31H24.414l2.293-2.293-1.414-1.414L21.586,31H7a5.006,5.006,0,0,0-5,5V50a5,5,0,0,0,4.055,4.9,7.994,7.994,0,0,0,15.876.1H26.07a7.993,7.993,0,0,0,15.862,0h4.139a8,8,0,1,0,0-2H41.932A7.993,7.993,0,0,0,26.07,53H21.931a7.991,7.991,0,0,0-15.838-.155A3,3,0,0,1,4,50V36a3,3,0,0,1,3-3H21.586l3.707,3.707,1.414-1.414L24.414,33h5.172l3.707,3.707,1.414-1.414L32.414,33h5.172l3.707,3.707,1.414-1.414L40.414,33H57a5.006,5.006,0,0,0,5-5ZM10,16a6,6,0,1,1,6-6A6.006,6.006,0,0,1,10,16Zm20,0a6,6,0,1,1,6-6A6.006,6.006,0,0,1,30,16Zm20,0a6,6,0,1,1,6-6A6.006,6.006,0,0,1,50,16Zm4,32a6,6,0,1,1-6,6A6.006,6.006,0,0,1,54,48ZM34,48a6,6,0,1,1-6,6A6.006,6.006,0,0,1,34,48ZM14,48a6,6,0,1,1-6,6A6.006,6.006,0,0,1,14,48Z" fill="#37373e"/>
  </g>
</svg>
