<svg xmlns="http://www.w3.org/2000/svg" width="63.284" height="53.158" viewBox="0 0 63.284 53.158">
  <g id="web-development" transform="translate(-2 -1)">
    <g id="Groupe_24" data-name="Groupe 24" transform="translate(2 1)">
      <path id="Tracé_54" data-name="Tracé 54" d="M61.487,1H5.8A3.8,3.8,0,0,0,2,4.8V50.361a3.8,3.8,0,0,0,3.8,3.8h55.69a3.8,3.8,0,0,0,3.8-3.8V4.8A3.8,3.8,0,0,0,61.487,1ZM5.8,3.531h55.69A1.266,1.266,0,0,1,62.752,4.8v6.328H4.531V4.8A1.266,1.266,0,0,1,5.8,3.531Zm55.69,48.1H5.8a1.266,1.266,0,0,1-1.266-1.266v-36.7H62.752v36.7A1.266,1.266,0,0,1,61.487,51.627Z" transform="translate(-2 -1)" fill="#37373e"/>
      <path id="Tracé_55" data-name="Tracé 55" d="M7.266,7.531H8.531A1.266,1.266,0,1,0,8.531,5H7.266a1.266,1.266,0,1,0,0,2.531Z" transform="translate(-0.937 0.063)" fill="#37373e"/>
      <path id="Tracé_56" data-name="Tracé 56" d="M12.266,7.531h1.266a1.266,1.266,0,0,0,0-2.531H12.266a1.266,1.266,0,0,0,0,2.531Z" transform="translate(0.391 0.063)" fill="#37373e"/>
      <path id="Tracé_57" data-name="Tracé 57" d="M17.266,7.531h1.266a1.266,1.266,0,0,0,0-2.531H17.266a1.266,1.266,0,0,0,0,2.531Z" transform="translate(1.719 0.063)" fill="#37373e"/>
      <path id="Tracé_58" data-name="Tracé 58" d="M35.266,7.531H50.454a1.266,1.266,0,0,0,0-2.531H35.266a1.266,1.266,0,0,0,0,2.531Z" transform="translate(6.501 0.063)" fill="#37373e"/>
      <path id="Tracé_59" data-name="Tracé 59" d="M12.433,27.286a1.266,1.266,0,1,0,1.79-1.79l-4.168-4.168,4.168-4.168a1.266,1.266,0,1,0-1.79-1.79L7.371,20.434a1.266,1.266,0,0,0,0,1.79Z" transform="translate(-0.672 2.719)" fill="#37373e"/>
      <path id="Tracé_60" data-name="Tracé 60" d="M20.371,27.286a1.266,1.266,0,0,0,1.79,0l5.063-5.063a1.266,1.266,0,0,0,0-1.79L22.16,15.371a1.266,1.266,0,1,0-1.79,1.79l4.168,4.168L20.371,25.5a1.266,1.266,0,0,0,0,1.79Z" transform="translate(2.782 2.719)" fill="#37373e"/>
      <path id="Tracé_61" data-name="Tracé 61" d="M14.821,27.577a1.266,1.266,0,0,0,1.63-.74l3.8-10.125a1.266,1.266,0,1,0-2.372-.886L14.08,25.95A1.266,1.266,0,0,0,14.821,27.577Z" transform="translate(1.188 2.72)" fill="#37373e"/>
      <path id="Tracé_62" data-name="Tracé 62" d="M49.188,23H35.266a1.266,1.266,0,0,0,0,2.531H49.188a1.266,1.266,0,0,0,0-2.531Z" transform="translate(6.501 4.845)" fill="#37373e"/>
      <path id="Tracé_63" data-name="Tracé 63" d="M52.376,29H23.266a1.266,1.266,0,0,0,0,2.531h29.11a1.266,1.266,0,0,0,0-2.531Z" transform="translate(3.313 6.439)" fill="#37373e"/>
      <path id="Tracé_64" data-name="Tracé 64" d="M8.266,31.531H22.188a1.266,1.266,0,1,0,0-2.531H8.266a1.266,1.266,0,0,0,0,2.531Z" transform="translate(-0.672 6.439)" fill="#37373e"/>
      <path id="Tracé_65" data-name="Tracé 65" d="M49.188,35H35.266a1.266,1.266,0,1,0,0,2.531H49.188a1.266,1.266,0,0,0,0-2.531Z" transform="translate(6.501 8.033)" fill="#37373e"/>
      <path id="Tracé_66" data-name="Tracé 66" d="M37.376,35H8.266a1.266,1.266,0,1,0,0,2.531h29.11a1.266,1.266,0,1,0,0-2.531Z" transform="translate(-0.672 8.033)" fill="#37373e"/>
    </g>
  </g>
</svg>
