<svg xmlns="http://www.w3.org/2000/svg" width="16.474" height="15.7" viewBox="0 0 16.474 15.7">
  <g id="Groupe_33" data-name="Groupe 33" transform="translate(-12497.5 418.7)">
    <g id="Groupe_17" data-name="Groupe 17" transform="translate(12498 -418.2)">
      <path id="Icon_material-work" data-name="Icon material-work" d="M16.926,6.095H13.832V4.547A1.542,1.542,0,0,0,12.284,3H9.189A1.542,1.542,0,0,0,7.642,4.547V6.095H4.547a1.535,1.535,0,0,0-1.54,1.547L3,16.153A1.542,1.542,0,0,0,4.547,17.7H16.926a1.542,1.542,0,0,0,1.547-1.547V7.642A1.542,1.542,0,0,0,16.926,6.095Z" transform="translate(-3 -3)" fill="none" stroke="#37373e" stroke-width="1"/>
      <path id="Tracé_39" data-name="Tracé 39" d="M11523.641,704.906h-9.719" transform="translate(-11509.865 -701.8)" fill="none" stroke="#37373e" stroke-width="1"/>
    </g>
  </g>
</svg>
